<?xml version="1.0" encoding="UTF-8" standalone="no"?>
<!-- Created with Inkscape (http://www.inkscape.org/) -->

<svg
   width="720mm"
   height="720mm"
   viewBox="0 0 720 720"
   version="1.1"
   id="svg5"
   xml:space="preserve"
   inkscape:version="1.2.1 (9c6d41e, 2022-07-14)"
   sodipodi:docname="drawing.svg"
   inkscape:export-filename="drawing.webp"
   inkscape:export-xdpi="25.4"
   inkscape:export-ydpi="25.4"
   xmlns:inkscape="http://www.inkscape.org/namespaces/inkscape"
   xmlns:sodipodi="http://sodipodi.sourceforge.net/DTD/sodipodi-0.dtd"
   xmlns="http://www.w3.org/2000/svg"
   xmlns:svg="http://www.w3.org/2000/svg"><sodipodi:namedview
     id="namedview7"
     pagecolor="#505050"
     bordercolor="#eeeeee"
     borderopacity="1"
     inkscape:showpageshadow="0"
     inkscape:pageopacity="0"
     inkscape:pagecheckerboard="0"
     inkscape:deskcolor="#505050"
     inkscape:document-units="mm"
     showgrid="false"
     inkscape:zoom="0.15070583"
     inkscape:cx="700.0393"
     inkscape:cy="1363.5837"
     inkscape:window-width="1440"
     inkscape:window-height="761"
     inkscape:window-x="0"
     inkscape:window-y="25"
     inkscape:window-maximized="0"
     inkscape:current-layer="layer5" /><defs
     id="defs2" /><g
     inkscape:groupmode="layer"
     id="layer3"
     inkscape:label="Layer 3"
     style="display:inline"><rect
       style="fill:#646464;fill-opacity:1;stroke:none;stroke-width:20.32;stroke-linecap:round;stroke-dasharray:none;stroke-opacity:1;stop-color:#000000"
       id="rect1679"
       width="720"
       height="720"
       x="0"
       y="0" /></g><g
     inkscape:groupmode="layer"
     id="layer2"
     inkscape:label="Layer 2"
     style="display:inline" /><g
     inkscape:groupmode="layer"
     id="layer4"
     inkscape:label="Layer 5"
     style="display:inline" /><g
     inkscape:groupmode="layer"
     id="layer5"
     inkscape:label="body"
     transform="translate(60.000003,59.999999)"><path
       style="display:inline;fill:none;fill-opacity:1;stroke:#ffffff;stroke-width:16.9333;stroke-linecap:round;stroke-linejoin:round;stroke-dasharray:none;stroke-opacity:1"
       d="m 252.36592,475.5589 16.35634,37.17348 H 73.722265 V 387.73239 H 194.41028"
       id="path383"
       sodipodi:nodetypes="ccccc" /><path
       style="display:inline;fill:none;fill-opacity:1;stroke:#ffffff;stroke-width:16.9333;stroke-linecap:round;stroke-linejoin:round;stroke-dasharray:none;stroke-opacity:1"
       d="M 73.722265,512.73238 V 387.73239 l -10,-125 v 125 z"
       id="path385-3-8"
       sodipodi:nodetypes="ccccc" /><path
       style="display:inline;fill:none;fill-opacity:1;stroke:#ffffff;stroke-width:16.9333;stroke-linecap:round;stroke-linejoin:round;stroke-dasharray:none;stroke-opacity:1"
       d="m 291.67197,312.59884 c 0,0 17.77468,1.43128 25.84826,4.84655 18.22217,7.70831 32.32233,7.74113 44.69593,-0.53851 11.18057,-7.48134 19.9588,-17.75882 5.38506,-32.31032 -3.70233,-3.69668 -9.09165,-10.54845 -6.46207,-16.69366 6.71141,-1.99976 11.1269,1.43637 15.07815,5.38505 11.30973,11.30238 25.59061,3.78745 36.61836,-1.07701 12.23332,-5.39626 31.52333,-22.50612 27.46377,-42.00341 -0.90993,-4.37023 -17.75779,-22.65796 -12.38562,-46.84996 -1.37415,-2.01734 -2.76291,-3.94958 -4.16549,-5.7997 m -50.33486,-35.31562 c -20.69008,-5.66444 -40.43041,-2.38422 -61.27829,2.34294 -45.55881,10.33025 -61.2076,29.03315 -100.70048,97.46945 -14.16247,27.67271 -28.21942,56.55876 -43.61893,70.00569 -13.46279,13.30594 10.28106,28.20005 15.07815,29.61779 13.42481,8.27148 30.16071,20.29562 42.00342,11.84712 5.90865,-4.21519 10.35428,-9.45182 16.69366,-9.15459 13.07118,0.61286 18.28573,-7.86396 20.93963,-16.75099 2.83182,-9.48285 15.14953,-13.06915 19.08917,-13.94381"
       id="path1856"
       sodipodi:nodetypes="cssscssscccscccsssc" /><path
       style="display:inline;fill:none;fill-opacity:1;stroke:#ffffff;stroke-width:16.9333;stroke-linecap:round;stroke-linejoin:round;stroke-dasharray:none;stroke-opacity:1"
       d="m 347.29033,160.84101 c 0,0 81.94094,-61.744916 94.45026,-49.93338 14.18153,13.39046 -34.60643,99.14449 -34.60643,99.14449"
       id="path2340"
       sodipodi:nodetypes="csc" /><path
       style="display:inline;fill:none;fill-opacity:1;stroke:#ffffff;stroke-width:16.9333;stroke-linecap:round;stroke-linejoin:round;stroke-dasharray:none;stroke-opacity:1"
       d="m 280.18018,155.88746 c 0,0 32.41483,-72.090673 44.55943,-70.117614 9.94782,1.616162 9.93839,54.816314 9.93839,54.816314"
       id="path2342"
       sodipodi:nodetypes="csc" /><path
       style="display:inline;fill:none;fill-opacity:1;stroke:#ffffff;stroke-width:16.9333;stroke-linecap:round;stroke-linejoin:round;stroke-dasharray:none;stroke-opacity:1"
       d="m 259.4067,335.10468 c 15.2858,-9.56327 33.32033,-16.65268 58.11353,-17.65929"
       id="path2344"
       sodipodi:nodetypes="cc" /><path
       style="display:inline;fill:none;fill-opacity:1;stroke:#ffffff;stroke-width:16.9333;stroke-linecap:round;stroke-linejoin:round;stroke-dasharray:none;stroke-opacity:1"
       d="m 228.66233,271.64121 75.1857,-55.85223"
       id="path2346"
       sodipodi:nodetypes="cc" /><path
       style="display:inline;fill:none;fill-opacity:1;stroke:#ffffff;stroke-width:16.9333;stroke-linecap:round;stroke-linejoin:round;stroke-dasharray:none;stroke-opacity:1"
       d="m 228.66233,271.64121 c 6.37428,4.71071 12.92982,7.24628 19.71512,7.02469 l 31.12473,-14.00622 3.88907,-33.67423"
       id="path2350"
       sodipodi:nodetypes="cccc" /><path
       style="display:inline;fill:none;fill-opacity:1;stroke:#ffffff;stroke-width:16.9333;stroke-linecap:round;stroke-linejoin:round;stroke-dasharray:none;stroke-opacity:1"
       d="m 260.50266,247.9884 c 6.54491,-3.32018 13.52807,-4.88738 21.30406,-3.28323"
       id="path2352"
       sodipodi:nodetypes="cc" /><path
       style="display:inline;fill:none;fill-opacity:1;stroke:#ffffff;stroke-width:16.9333;stroke-linecap:round;stroke-linejoin:round;stroke-dasharray:none;stroke-opacity:1"
       d="m 257.86114,274.3982 c -7.70125,-1.69983 -11.4901,-7.86823 -11.70292,-15.75394"
       id="path2354"
       sodipodi:nodetypes="cc" /><path
       style="display:inline;fill:none;fill-opacity:1;stroke:#ffffff;stroke-width:16.9333;stroke-linecap:round;stroke-linejoin:round;stroke-dasharray:none;stroke-opacity:1"
       d="m 253.03109,253.53869 c 5.93194,3.00075 10.26689,10.20865 10.90872,18.1241"
       id="path2403"
       sodipodi:nodetypes="cc" /><ellipse
       style="display:inline;fill:none;fill-opacity:1;stroke:#ffffff;stroke-width:16.9333;stroke-linecap:round;stroke-linejoin:round;stroke-dasharray:none;stroke-opacity:1"
       id="path2457"
       cx="109.53046"
       cy="350.47446"
       rx="2.0310848"
       ry="4.531085"
       transform="rotate(-26.549756)" /><path
       style="fill:none;fill-opacity:1;stroke:#ffffff;stroke-width:16.9333;stroke-linecap:round;stroke-linejoin:round;stroke-dasharray:none;stroke-opacity:1"
       d="m 295.50661,514.30607 c -1.58456,-47.14331 -1.66384,-36.57003 -1.66384,-56.06419 m 1.66384,-70.9581 c 0,-22.3625 10.40724,-54.07418 0,-67.08749"
       id="path2467"
       sodipodi:nodetypes="cccc" /><path
       style="fill:none;fill-opacity:1;stroke:#ffffff;stroke-width:16.9333;stroke-linecap:round;stroke-linejoin:round;stroke-dasharray:none;stroke-opacity:1"
       d="m 352.41848,335.48499 c -18.68403,36.09642 -46.57241,46.47252 -78.87967,60.82287 -28.26729,12.55587 -79.15129,28.97293 -71.63756,58.97682 1.42898,5.70623 15.14804,0.11825 21.80576,3.22698 9.73758,4.54683 16.65892,18.53963 27.35251,17.22277 41.37899,-5.0956 81.57403,-54.4303 124.40718,-57.59253"
       id="path2469"
       sodipodi:nodetypes="cssssc" /><path
       style="fill:none;fill-opacity:1;stroke:#ffffff;stroke-width:16.9333;stroke-linecap:round;stroke-linejoin:round;stroke-dasharray:none;stroke-opacity:1"
       d="m 300,338.77963 c -18.18763,27.77392 -33.93566,35.55046 -59.34438,44.87048 -14.02164,5.1432 -38.8327,-1.65393 -43.42481,1.45197 -6.83587,4.62347 -8.38986,16.33918 -8.59947,24.2549 -0.13916,5.25513 25.7775,1.62699 29.32638,3.74848 6.91368,-4.33265 10.18235,-2.15637 11.79388,2.9791"
       id="path2471"
       sodipodi:nodetypes="cssscc" /><path
       style="fill:none;fill-opacity:1;stroke:#ffffff;stroke-width:16.9333;stroke-linecap:round;stroke-linejoin:round;stroke-dasharray:none;stroke-opacity:1"
       d="m 217.95772,413.10546 -8.00955,14.12108 6.16834,-2.34929"
       id="path2527" /><path
       style="fill:none;fill-opacity:1;stroke:#ffffff;stroke-width:16.9333;stroke-linecap:round;stroke-linejoin:round;stroke-dasharray:none;stroke-opacity:1"
       d="m 412.83566,272.21094 c 64.51515,45.60579 104.51111,112.66587 123.44207,198.15782"
       id="path2465"
       sodipodi:nodetypes="cc" /></g></svg>
